<?xml version="1.0" encoding="UTF-8"?>
<svg id="Layer_2" data-name="Layer 2" xmlns="http://www.w3.org/2000/svg" viewBox="0 0 26.73 42">
  <defs>
    <style>
      .cls-1 {
        fill: #fff;
      }
    </style>
  </defs>
  <g id="Layer_1-2" data-name="Layer 1">
    <path class="cls-1" d="m26.73,21.06c0,5.87,0,11.73,0,17.6,0,2.12-1.21,3.34-3.32,3.34-6.7,0-13.4,0-20.1,0-2.08,0-3.3-1.24-3.3-3.31C0,26.94,0,15.19.02,3.44c0-.71.18-1.48.51-2.1C1.12.23,2.25,0,3.41,0,8.14,0,12.87,0,17.6,0c1.95,0,3.9,0,5.85,0,2.03,0,3.27,1.24,3.27,3.28,0,5.93,0,11.85,0,17.78ZM4.82,5.75v29.51h17.11V5.75H4.82Zm8.54,31.47c-.91,0-1.83,0-2.74,0-.73,0-1.07.32-1.07.97,0,.58.37.93,1.06.94,1.84.01,3.69.02,5.53,0,.73,0,1.04-.32,1.04-.94,0-.64-.35-.96-1.08-.97-.91-.01-1.83,0-2.74,0Zm.03-34.84c-.59-.01-.96.34-.99.93-.02.58.35.97.93.97.62,0,.97-.33.98-.93,0-.61-.33-.97-.93-.98Z"/>
  </g>
</svg>