<?xml version="1.0" encoding="UTF-8"?>
<svg id="Layer_2" data-name="Layer 2" xmlns="http://www.w3.org/2000/svg" viewBox="0 0 160.69 150">
  <g id="Layer_1-2" data-name="Layer 1">
    <g>
      <path d="m80.27,0C103.92,0,127.58,0,151.23.01c1.05,0,2.11.14,3.15.3,3.76.61,5.91,4.15,6.15,6.85.09,1,.15,2,.15,3,0,32.73.01,65.45-.01,98.18,0,1.24-.1,2.52-.4,3.73-.76,3.06-3.43,5.27-6.59,5.6-1.02.11-2.06.17-3.09.17-47.09,0-94.18,0-141.27,0-2.44,0-4.7-.46-6.59-2.16-1.86-1.68-2.61-3.82-2.73-6.26-.01-.31-.01-.61-.01-.92C0,75.32,0,42.12,0,8.92c0-3.37,1.23-6.07,4.21-7.85C5.39.37,6.7.14,8.04.05c.56-.04,1.11-.05,1.67-.05C33.23,0,56.75,0,80.27,0Zm.08,10.71c-22.21,0-44.41,0-66.62,0-2.04,0-3.02.98-3.02,3.01,0,26.51,0,53.01,0,79.52,0,.22,0,.45,0,.67.08,1.46,1.14,2.48,2.6,2.51.56.01,1.12,0,1.67,0,43.55,0,87.1,0,130.64,0,.61,0,1.24.09,1.84-.02.55-.1,1.13-.31,1.58-.64.82-.59.93-1.53.93-2.48,0-8.65,0-17.3,0-25.95,0-17.77,0-35.55,0-53.32,0-2.35-.92-3.31-3.18-3.31-22.15,0-44.3,0-66.45,0Zm.01,96.43h0c1.81,0,3.62.02,5.43,0,1.57-.02,2.62-1.16,2.6-2.75-.02-1.54-1.1-2.6-2.65-2.6-3.57,0-7.13,0-10.7,0-1.59,0-2.72,1.09-2.73,2.63-.02,1.62,1.05,2.71,2.71,2.73,1.78.02,3.57,0,5.35,0Z"/>
      <path d="m80.31,150c-11.24,0-22.48,0-33.73,0-.22,0-.45,0-.67,0-2.26-.07-3.4-1.51-2.99-3.72.57-3.07,3.05-6.72,7.89-6.94.47-.02.95-.05,1.42-.05,18.77,0,37.55,0,56.32,0,.86,0,1.73.06,2.58.21,3.55.61,6.25,3.49,6.69,7.09.23,1.85-1.01,3.27-2.95,3.4-.25.02-.5,0-.75,0-11.27,0-22.54,0-33.81,0Z"/>
      <path d="m105.23,133.89h-49.72c.67-.64,1.23-1.19,1.81-1.73,2.58-2.42,4.58-5.23,5.97-8.49.09-.21.42-.34.66-.46.11-.06.27-.01.41-.01,10.66,0,21.31,0,31.97-.02.66,0,.96.2,1.23.8,1.58,3.58,3.91,6.61,6.85,9.17.23.2.45.4.82.73Z"/>
      <path d="m144.59,16.13v74.9H16.14V16.13h128.45Zm-69.72,20.22c-.25-.32-.45-.58-.66-.84-7.39-9.12-17.01-12.79-28.49-10.95-13.93,2.23-23.3,14.07-24.2,26.35-.44,5.98.58,11.66,3.47,16.86,4.48,8.08,11.29,13.16,20.47,14.79,6.7,1.19,13.16.5,19.19-2.87,8.37-4.68,13.73-11.57,15.27-21.16.91-5.67.44-11.23-1.96-16.52-.25-.55-.11-.87.26-1.23.91-.87,1.76-1.79,2.72-2.6.41-.34,1.01-.63,1.52-.64,3.74-.05,7.47-.01,11.21-.02,1.66,0,2.75-1.1,2.74-2.7-.01-1.62-1.09-2.66-2.77-2.66-4.29,0-8.59.03-12.88-.02-1.16-.01-2.04.37-2.82,1.17-.99,1.02-2.02,2-3.08,3.06Zm48.34,31.87c0,4.02,0,8.03,0,12.05,0,1.6,1.02,2.74,2.52,2.76,3.68.03,7.36.04,11.05-.02.55,0,1.17-.35,1.63-.69.75-.56.87-1.44.87-2.34,0-7.76,0-15.51,0-23.27,0-.25,0-.5-.04-.75-.25-1.59-1.19-2.39-2.8-2.39-3.49,0-6.97,0-10.46,0-1.69,0-2.76,1.07-2.76,2.76,0,3.96,0,7.92,0,11.88Zm-21.43,3.98c0,2.62,0,5.24,0,7.87,0,1.98,1,2.97,2.98,2.98,3.35,0,6.69,0,10.04,0,2.02,0,3.03-.99,3.04-3.03.01-2.18,0-4.35,0-6.53,0-2.96.01-5.91,0-8.87-.01-2-1.03-3.01-2.97-3.01-3.46,0-6.92,0-10.38,0-1.64,0-2.72,1.08-2.72,2.72,0,2.62,0,5.24,0,7.87Zm-13.48,10.84h0c1.78,0,3.57.01,5.35,0,1.59-.01,2.71-.98,2.73-2.55.06-3.63.07-7.25,0-10.88-.03-1.74-1.14-2.65-2.89-2.65-3.51,0-7.03,0-10.54,0-1.48,0-2.6,1.11-2.61,2.58-.01,3.57-.01,7.14,0,10.71,0,1.71,1.06,2.76,2.76,2.78,1.73.01,3.46,0,5.19,0Zm33.62-45.54c-4.91,0-9.81,0-14.72,0-1.6,0-2.74,1.08-2.75,2.61-.01,1.63,1.05,2.75,2.69,2.75,9.78.01,19.57.01,29.35.01,1.68,0,2.79-1.08,2.79-2.66,0-1.67-1.07-2.71-2.81-2.71-4.85,0-9.7,0-14.55,0Zm-6.68-10.71c-2.73,0-5.46,0-8.19,0-1.49,0-2.6,1.16-2.6,2.67s1.06,2.67,2.59,2.68c5.41.02,10.81.02,16.22,0,1.59,0,2.65-1.14,2.63-2.72-.01-1.58-1.09-2.64-2.7-2.64-2.65,0-5.29,0-7.94,0Zm20.05,0c-.53,0-1.06-.01-1.59,0-1.35.04-2.45,1.18-2.48,2.54-.03,1.55.94,2.73,2.36,2.8,1.11.05,2.23.06,3.34,0,1.42-.07,2.39-1.28,2.34-2.82-.04-1.4-1.1-2.49-2.48-2.52-.5-.01-1,0-1.5,0Z"/>
      <path d="m65.9,72.19c-5.05,4.61-15.65,7.87-25.53,2.97-10.26-5.08-15.33-16.47-13.02-26.65,2.32-10.27,10.8-17.81,20.81-18.75.02.29.05.58.05.87,0,2.9-.03,5.8.02,8.7.02.8-.26,1.09-1,1.31-5.24,1.61-8.57,5.12-9.52,10.48-1.01,5.71.95,10.47,5.87,13.65,4.37,2.82,9.04,2.83,13.67.48.78-.4,1.22-.39,1.85.25,2.21,2.25,4.49,4.42,6.8,6.66Z"/>
      <path d="m73.53,45.52c2.83,8.48,1.19,15.94-3.79,23.01-1.12-1.09-2.14-2.07-3.15-3.06-1.31-1.29-2.59-2.61-3.93-3.88-.51-.48-.52-.84-.19-1.43,3.8-6.72,1.37-14.99-5.46-18.56-.9-.47-1.92-.71-2.87-1.1-.23-.09-.55-.35-.55-.54-.03-3.37-.02-6.74-.02-10.24.74.11,1.39.17,2.03.31,6.2,1.35,11.17,4.58,14.91,9.72.37.5.3.79-.13,1.18-.92.85-1.82,1.73-2.66,2.66-1.05,1.16-1.02,2.83,0,3.85,1.02,1.02,2.79,1.02,3.94-.03.61-.55,1.16-1.17,1.88-1.9Z"/>
      <path d="m58.92,53.62c-.02,4.37-3.71,8.01-8.12,7.99-4.19-.02-7.96-3.87-7.95-8.13.01-4.24,3.81-7.95,8.11-7.94,4.25.01,7.98,3.8,7.96,8.08Z"/>
      <path d="m128.61,58.97h5.26v18.64h-5.26v-18.64Z"/>
      <path d="m107.19,67h5.25v10.61h-5.25v-10.61Z"/>
      <path d="m91.03,72.38v5.25h-5.28v-5.25h5.28Z"/>
    </g>
  </g>
</svg>