<?xml version="1.0" encoding="UTF-8"?>
<svg id="Layer_2" data-name="Layer 2" xmlns="http://www.w3.org/2000/svg" viewBox="0 0 225.06 150">
  <g id="Layer_1-2" data-name="Layer 1">
    <g>
      <path d="m101.22,97.48v29.99h-1.25c-29.06,0-58.12,0-87.18,0-5.02,0-9.07-1.76-11.5-6.39C.29,119.17.01,117.07.01,114.95,0,80.66,0,46.37.01,12.08.01,6.24,3.6,1.52,8.89.38,10.25.09,11.68.01,13.08.01,59.44,0,105.8-.01,152.16.04c1.92,0,3.94.26,5.74.9,4.01,1.42,6.29,4.61,6.75,8.68.48,4.2.33,8.48.45,12.8h-15.12c0-1.24.02-2.44,0-3.64-.04-2.29-1.56-3.79-3.86-3.79-42.46,0-84.91,0-127.37,0-2.21,0-3.75,1.54-3.75,3.75,0,24.92,0,49.83,0,74.75,0,2.59,1.51,4.01,4.24,4.01,21.29,0,42.57-.01,63.86-.02,5.59,0,11.17,0,16.76,0h1.37Zm-18.65,7.5c-1.36,0-2.73-.02-4.09,0-1.89.04-3.45,1.64-3.48,3.54-.04,2.17,1.31,3.87,3.3,3.93,2.8.08,5.61.08,8.42,0,1.98-.05,3.35-1.78,3.29-3.93-.05-1.97-1.53-3.5-3.46-3.54-1.32-.03-2.65,0-3.98,0Z"/>
      <path d="m101.24,89.93H22.56V22.65h93.92c-3.95.73-7.18,2.65-9.88,5.5-3.46,3.66-5.35,7.99-5.35,13.09,0,15.74,0,31.48,0,47.21,0,.46,0,.92,0,1.47Z"/>
      <path d="m108.8,112.39v-59.84h89.85v7.44c-.41,0-.82,0-1.23,0-4.34,0-8.67,0-13.01,0-9.45,0-16.59,5.5-18.96,14.66-.3,1.16-.43,2.39-.44,3.58-.03,10.9-.02,21.79-.02,32.69v1.48h-56.19Z"/>
      <path d="m172.54,127.39v-37.35h52.35v37.35h-52.35Z"/>
      <path d="m108.78,120.02h56.21v1.26c0,5.89.02,11.79,0,17.68-.02,3.79,1.06,7.22,3.2,10.33.1.15.19.32.36.61-.48.03-.85.07-1.22.07-15.34,0-30.69,0-46.03,0-4.99,0-9.03-1.84-11.28-6.5-.72-1.5-1.14-3.28-1.18-4.95-.14-6.12-.05-12.25-.05-18.5Zm45.07,7.46c-1.36,0-2.73-.02-4.09,0-1.95.04-3.5,1.65-3.52,3.62-.02,2.15,1.37,3.81,3.38,3.85,2.73.06,5.46.06,8.18,0,2.08-.04,3.49-1.71,3.44-3.91-.04-2.03-1.54-3.55-3.54-3.58-1.29-.02-2.57,0-3.86,0Z"/>
      <path d="m198.82,44.94h-89.9c-1.21-7.81,2.98-14.03,9.92-14.75,1.12-.12,2.26-.19,3.39-.19,21.08-.01,42.17-.02,63.25.01,1.47,0,2.95.2,4.42.41,4.99.74,8.26,5.58,8.61,9.7.13,1.55.2,3.11.31,4.81Z"/>
      <path d="m101.31,135.03c-.39,5.32.09,10.38,3.59,14.87-.61.03-1.02.07-1.42.07-17.89,0-35.78,0-53.67,0-1.97,0-3.65-.52-4.52-2.47-.86-1.93.35-4.33,2.62-4.74,1.82-.33,3.73-.29,5.59-.25,1.16.03,2.06-.26,2.78-1.13,1.52-1.83,2.99-3.69,4.56-5.47.38-.44,1.04-.89,1.58-.89,12.73-.05,25.47-.04,38.2-.04.15,0,.31.02.69.05Z"/>
      <path d="m172.26,82.4c.28-2.34.32-4.62.85-6.79,1.15-4.65,5.14-7.62,10.45-8.06.74-.06,1.48-.07,2.22-.07,8.71,0,17.41-.02,26.12.01,1.32,0,2.66.09,3.96.34,4.96.95,8.47,4.89,8.92,9.94.13,1.51.19,3.02.28,4.62h-52.8Z"/>
      <path d="m172.68,135.03h52.3c.03,3.14.1,6.24-1.43,9.05-2.32,4.28-6.23,5.83-10.83,5.86-9.45.06-18.89.08-28.34-.01-4.78-.05-8.47-2.14-10.7-6.51-1-1.96-1.54-6.56-1-8.4Z"/>
    </g>
  </g>
</svg>